<?xml version="1.0" encoding="UTF-8"?>
<svg id="Layer_1" xmlns="http://www.w3.org/2000/svg" version="1.1" viewBox="0 0 16 16">
  <!-- Generator: Adobe Illustrator 30.5.1, SVG Export Plug-In . SVG Version: 2.1.4 Build 3)  -->
  <defs>
    <style>
      .st0 {
        fill: #4d4d4d;
      }
    </style>
  </defs>
  <path class="st0" d="M12.32,12.82h-1.85c-.28,0-.5-.22-.5-.5s.22-.5.5-.5h1.35v-1.13c0-.28.22-.5.5-.5s.5.22.5.5v1.63c0,.28-.22.5-.5.5Z"/>
  <path class="st0" d="M5.53,12.82h-1.85c-.28,0-.5-.22-.5-.5v-1.63c0-.28.22-.5.5-.5s.5.22.5.5v1.13h1.35c.28,0,.5.22.5.5s-.22.5-.5.5Z"/>
  <path class="st0" d="M12.32,6.25c-.28,0-.5-.22-.5-.5v-1.57h-1.35c-.28,0-.5-.22-.5-.5s.22-.5.5-.5h1.85c.28,0,.5.22.5.5v2.07c0,.28-.22.5-.5.5Z"/>
  <path class="st0" d="M3.68,6.25c-.28,0-.5-.22-.5-.5v-2.07c0-.28.22-.5.5-.5h1.85c.28,0,.5.22.5.5s-.22.5-.5.5h-1.35v1.57c0,.28-.22.5-.5.5Z"/>
  <g>
    <path class="st0" d="M4.42,9.67h.86v-2.88l-1.04.66v-.71l1.04-.66h.71v3.59h.77v.61h-2.34v-.61Z"/>
    <path class="st0" d="M7.43,7.22h1.14v1.14h-1.14v-1.14ZM7.43,9.14h1.14v1.14h-1.14v-1.14Z"/>
    <path class="st0" d="M9.46,9.67h.86v-2.88l-1.04.66v-.71l1.04-.66h.71v3.59h.77v.61h-2.34v-.61Z"/>
  </g>
</svg>