<?xml version="1.0" encoding="UTF-8"?>
<svg id="Layer_1" xmlns="http://www.w3.org/2000/svg" version="1.1" viewBox="0 0 16 16">
  <!-- Generator: Adobe Illustrator 30.5.1, SVG Export Plug-In . SVG Version: 2.1.4 Build 3)  -->
  <defs>
    <style>
      .st0 {
        fill: #4d4d4d;
      }
    </style>
  </defs>
  <path class="st0" d="M12.32,12.82h-1.85c-.28,0-.5-.22-.5-.5s.22-.5.5-.5h1.35v-1.13c0-.28.22-.5.5-.5s.5.22.5.5v1.63c0,.28-.22.5-.5.5Z"/>
  <path class="st0" d="M5.53,12.82h-1.85c-.28,0-.5-.22-.5-.5v-1.63c0-.28.22-.5.5-.5s.5.22.5.5v1.13h1.35c.28,0,.5.22.5.5s-.22.5-.5.5Z"/>
  <path class="st0" d="M12.32,6.25c-.28,0-.5-.22-.5-.5v-1.57h-1.35c-.28,0-.5-.22-.5-.5s.22-.5.5-.5h1.85c.28,0,.5.22.5.5v2.07c0,.28-.22.5-.5.5Z"/>
  <path class="st0" d="M3.68,6.25c-.28,0-.5-.22-.5-.5v-2.07c0-.28.22-.5.5-.5h1.85c.28,0,.5.22.5.5s-.22.5-.5.5h-1.35v1.57c0,.28-.22.5-.5.5Z"/>
  <g>
    <path class="st0" d="M5.66,9.23h-1.5v-.61l1.1-2.54h1.1v2.54h.47v.61h-.47v1.05h-.7v-1.05ZM5.66,8.62v-1.92l-.83,1.92h.83Z"/>
    <path class="st0" d="M7.43,7.22h1.14v1.14h-1.14v-1.14ZM7.43,9.14h1.14v1.14h-1.14v-1.14Z"/>
    <path class="st0" d="M9.35,9.45v-.58h.71v.43c0,.3.07.4.4.4h.13c.32,0,.4-.1.4-.4v-.82c0-.26-.12-.35-.31-.35-.14,0-.26.05-.46.19l-.16.11h-.71v-2.34h2.19v.62h-1.48v1.12l.11-.07c.26-.17.46-.26.73-.26.49,0,.79.29.79.83v1.12c0,.55-.32.86-.98.86h-.38c-.66,0-.98-.32-.98-.86Z"/>
  </g>
</svg>