<?xml version="1.0" encoding="UTF-8"?>
<svg id="Layer_1" xmlns="http://www.w3.org/2000/svg" version="1.1" viewBox="0 0 16 16">
  <!-- Generator: Adobe Illustrator 30.5.1, SVG Export Plug-In . SVG Version: 2.1.4 Build 3)  -->
  <defs>
    <style>
      .st0 {
        fill: #4d4d4d;
      }
    </style>
  </defs>
  <path class="st0" d="M12,15.5h-2c-.28,0-.5-.22-.5-.5s.22-.5.5-.5h1.5v-1.14c0-.28.22-.5.5-.5s.5.22.5.5v1.64c0,.28-.22.5-.5.5Z"/>
  <path class="st0" d="M6,15.5h-2c-.28,0-.5-.22-.5-.5v-1.64c0-.28.22-.5.5-.5s.5.22.5.5v1.14h1.5c.28,0,.5.22.5.5s-.22.5-.5.5Z"/>
  <path class="st0" d="M12,3.86c-.28,0-.5-.22-.5-.5v-1.86h-1.5c-.28,0-.5-.22-.5-.5s.22-.5.5-.5h2c.28,0,.5.22.5.5v2.36c0,.28-.22.5-.5.5Z"/>
  <path class="st0" d="M4,3.86c-.28,0-.5-.22-.5-.5V1c0-.28.22-.5.5-.5h2c.28,0,.5.22.5.5s-.22.5-.5.5h-1.5v1.86c0,.28-.22.5-.5.5Z"/>
  <g>
    <path class="st0" d="M3.05,9.45v-.52h.71v.37c0,.3.07.4.4.4h.13c.32,0,.4-.1.4-.4v-1.01l-.11.07c-.26.17-.46.26-.73.26-.49,0-.79-.29-.79-.83v-.88c0-.55.32-.86.98-.86h.38c.66,0,.98.32.98.86v2.54c0,.55-.32.86-.98.86h-.38c-.66,0-.98-.32-.98-.86ZM4.52,7.8l.16-.11v-.64c0-.3-.07-.4-.4-.4h-.13c-.32,0-.4.1-.4.4v.58c0,.26.12.35.31.35.14,0,.26-.05.46-.19Z"/>
    <path class="st0" d="M6.17,7.22h1.14v1.14h-1.14v-1.14ZM6.17,9.14h1.14v1.14h-1.14v-1.14Z"/>
    <path class="st0" d="M8.2,9.67h.86v-2.88l-1.04.66v-.71l1.04-.66h.71v3.59h.77v.61h-2.34v-.61Z"/>
    <path class="st0" d="M10.61,9.45v-2.54c0-.55.32-.86.98-.86h.38c.66,0,.98.32.98.86v.52h-.71v-.37c0-.3-.07-.4-.4-.4h-.13c-.32,0-.4.1-.4.4v1.01l.11-.07c.26-.17.46-.26.73-.26.49,0,.79.29.79.83v.88c0,.55-.32.86-.98.86h-.38c-.66,0-.98-.32-.98-.86ZM11.84,9.7c.32,0,.4-.1.4-.4v-.58c0-.26-.12-.35-.31-.35-.14,0-.26.05-.46.19l-.16.11v.64c0,.3.07.4.4.4h.13Z"/>
  </g>
</svg>