<?xml version="1.0" encoding="UTF-8"?>
<svg id="Layer_1" xmlns="http://www.w3.org/2000/svg" version="1.1" viewBox="0 0 16 16">
  <!-- Generator: Adobe Illustrator 30.5.1, SVG Export Plug-In . SVG Version: 2.1.4 Build 3)  -->
  <defs>
    <style>
      .st0 {
        fill: #4d4d4d;
      }

      .st1 {
        fill: none;
        stroke: #4d4d4d;
        stroke-linecap: round;
        stroke-linejoin: round;
      }
    </style>
  </defs>
  <polyline class="st1" points="15 12.36 15 15 12 15"/>
  <polyline class="st1" points="1 12.36 1 15 4 15"/>
  <polyline class="st1" points="12 1 15 1 15 4.36"/>
  <polyline class="st1" points="1 4.36 1 1 4 1"/>
  <path class="st0" d="M12.83,3.4v3.14c0,.12-.1.23-.22.23-.07,0-.13-.02-.17-.07-.03-.03-1.22-1.22-1.22-1.22l-5.74,5.74s1.19,1.19,1.22,1.22c.04.04.07.1.07.16,0,.13-.11.23-.23.23h-3.15c-.13,0-.23-.1-.23-.23v-3.14c0-.13.1-.24.23-.24.07,0,.12.03.16.07.04.04,1.23,1.23,1.23,1.23l5.74-5.74-1.23-1.23s-.07-.09-.07-.15c0-.13.11-.24.24-.24h3.15c.12,0,.22.11.22.24Z"/>
</svg>