<?xml version="1.0" encoding="UTF-8"?>
<svg xmlns="http://www.w3.org/2000/svg" version="1.1" viewBox="0 0 24 24">
  <g fill="none" stroke="#4d4d4d" stroke-linecap="round" stroke-linejoin="round" stroke-width="1.08">
    <path d="M14.92,9.47c0-.88-.38-1.71-1.07-2.27-.24-.2-.51-.35-.79-.46"/>
    <path d="M9.62,16.24h4.78v-1.47c.01-.61.31-1.16.77-1.55,1.06-.9,1.74-2.23,1.75-3.73.02-3.06-2.77-5.49-5.95-4.84-1.88.38-3.4,1.9-3.78,3.78s.32,3.65,1.6,4.76c.46.4.74.95.74,1.56"/>
    <line x1="10.1" y1="17.85" x2="13.89" y2="17.85"/>
    <line x1="10.96" y1="19.46" x2="13.04" y2="19.46"/>
  </g>
</svg>
