<?xml version="1.0" encoding="UTF-8"?>
<svg id="Layer_1" xmlns="http://www.w3.org/2000/svg" version="1.1" viewBox="0 0 233.02 233.02">
  <!-- Generator: Adobe Illustrator 30.5.1, SVG Export Plug-In . SVG Version: 2.1.4 Build 3)  -->
  <defs>
    <style>
      .st0 {
        fill: #fff;
      }

      .st1 {
        fill: red;
      }
    </style>
  </defs>
  <path d="M233.02,116.51c0,36.97-17.21,69.91-44.06,91.25-4.49,3.57-9.26,6.82-14.26,9.71h0c-1.69.98-3.41,1.91-5.15,2.8-.49.26-.99.5-1.49.75-2.18,1.08-4.4,2.09-6.67,3.04-1.06.45-2.13.88-3.21,1.28h0c-12.94,4.96-26.98,7.68-41.66,7.68C52.16,233.02,0,180.86,0,116.51c0-16.3,3.35-31.82,9.4-45.91h0c.2-.49.42-.98.64-1.46.92-2.09,1.91-4.15,2.96-6.16.24-.47.49-.94.74-1.41,1.63-3.03,3.38-5.98,5.26-8.84.49-.76,1-1.51,1.51-2.25.3-.44.6-.87.91-1.3C42.53,19.42,77.25,0,116.51,0c64.35,0,116.51,52.16,116.51,116.51Z"/>
  <g>
    <g>
      <path d="M197.8,67.88l-4.34-4.59-1.44-1.52c-.13-.27-.25-.53-.38-.8-.27-.56-.55-1.12-.84-1.67-.01-.02-.02-.02-.02-.02h0c-.23-.44-.5-.91-.79-1.41-1.64-2.92-3.48-5.65-5.44-8.39-.3-.43-.61-.85-.91-1.27-.31-.43-.62-.86-.94-1.28-.01-.02-.03-.04-.04-.05,0,0,0,0,0-.01-1.88-2.5-3.83-4.8-6.04-7.06l-4.93-4.83h0s-3.85-3.78-3.85-3.78c-.36-.35-.73-.7-1.09-1.04-10.34-9.73-23.14-16.4-37.22-18.75-1.47-.25-2.95-.44-4.43-.57-5.18-.49-10.4-.34-15.57.36,0,0-.02,0-.02,0-19.16,2.62-37.58,12.92-50.41,26.87-.2.21-.4.43-.59.64-.2.16-.4.32-.59.49-.32.27-.65.55-.98.83-.35.3-.77.67-1.25,1.1-1.82,1.64-4.48,4.22-7.28,7.64-2.31,2.82-4.39,5.81-6.24,8.98l-20.7-8.57L1.43,40.89l-.77.55.04.49h0s.06.99.06.99v.16s.04.36.04.36h0s.49,7.18.49,7.18l.04.55.06.92v.14s.2,2.77.2,2.77c0,0,0,.02.02.05.01.02.03.07.05.12.01.03.03.07.05.11.03.07.06.14.1.22.06.13.14.29.22.48.04.09.08.18.13.28.08.16.16.33.25.52.08.17.17.35.26.55.12.25.25.53.39.82.18.37.38.78.59,1.22.08.17.17.35.26.53.13.27.27.55.41.85.83,1.69,1.84,3.69,3.01,5.94.25.47.49.94.75,1.43.42.81.87,1.65,1.33,2.51h0c.39.73.79,1.46,1.2,2.22.33.6.67,1.22,1.01,1.84l.04.07c.34.6.68,1.21,1.03,1.82.59,1.04,1.19,2.11,1.82,3.19.37.64.74,1.28,1.13,1.93,1.06,1.81,2.17,3.65,3.32,5.52.45.73.91,1.45,1.37,2.18.23.37.47.73.7,1.1.23.37.47.74.71,1.1.71,1.1,1.43,2.21,2.18,3.31.41.62.83,1.24,1.25,1.86,2.09,3.06,4.28,6.11,6.55,9.06.36,3.99,1,7.99,1.91,11.98,1.93,8.4,5.3,16.15,9.88,23.45-2.12.64-4,1.31-5.95,2.15-.14.06-.28.13-.42.19l.42.22c.29.16.59.31.88.46.55.29,1.1.58,1.64.86,1.1.57,2.18,1.13,3.27,1.67.54.28,1.08.55,1.62.82.54.27,1.08.54,1.61.8.53.27,1.07.53,1.6.79.53.26,1.06.52,1.6.78,1.35.65,2.69,1.29,4.03,1.91.8.37,1.59.74,2.38,1.1,2.22,1.02,4.42,2,6.58,2.95.63.28,1.26.55,1.89.82.2.09.41.18.62.26.62.27,1.24.53,1.85.79,1.86.79,3.7,1.54,5.51,2.26.49.2.97.39,1.45.58,1.45.58,2.87,1.13,4.29,1.67.74.28,1.49.56,2.22.83.14.05.28.11.43.16.86.32,1.71.64,2.55.94.98.36,1.95.7,2.92,1.04.86.31,1.72.6,2.57.89.9.31,1.79.61,2.68.91.88.3,1.76.59,2.64.87.88.29,1.74.56,2.6.83.74.23,1.48.47,2.22.7.58.18,1.16.35,1.74.53.56.17,1.12.34,1.68.5,3.01.9,5.93,1.72,8.74,2.47.59.16,1.18.32,1.76.47.58.16,1.16.31,1.74.46,1.15.3,2.28.59,3.4.86.22.05.43.1.64.16.56.14,1.11.27,1.66.4,1.42.35,2.81.67,4.17.98,5.14.99,21.07,4.36,25.13,4.61l18.19,40.09c.5-.25,1-.49,1.49-.75l9.06-42.23c9.82-2.24,14.88-6.79,17.63-10.41-2-2.33-7.12-4.16-9.99-5.55l.02-9.06.74-2.7,2.83-10.28.11-9.34,4.66-9.17-.04-10.8c-.65-1.59-.71-3.11-1.06-4.78l.32-4.78,4.68,1.17.05-9.89-4.97-.54.08,4.73-11.11-1.25v5.86c-1.67-.06-3.36-.11-5.03-.16-.91-.03-1.81-.05-2.72-.08-.91-.03-1.82-.05-2.74-.08-1.59-.04-3.18-.08-4.76-.11-1.58-.04-3.17-.07-4.76-.09-.16,0-.32,0-.49-.01-.23,0-.46,0-.7-.01-1.19-.02-2.38-.04-3.57-.05-1.35-.02-2.69-.04-4.04-.05-.3,0-.61,0-.91,0-1.65-.01-3.3-.02-4.95-.03-.41,0-.82,0-1.22,0-1.18,0-2.36,0-3.54,0-9.14,0-18.29.1-27.51.3l.02-2.77.04-4.61h0l-15.8.56.1-4.34-8.02.17-.04-7.25,8-.32v-4.85s15.61-.98,15.61-.98l-.14-6.49c.59-.02,1.18-.04,1.77-.06.58-.02,1.15-.03,1.72-.04,2.08-.04,4.15-.04,6.22,0,2.19.02,4.38.07,6.56.14.91.03,1.8.05,2.7.09.8.03,1.6.06,2.4.09.23,0,.47.02.7.02.97.04,1.94.08,2.92.11,1.15.05,2.3.09,3.46.13,3.26.12,6.49.25,9.72.39,1.19.05,2.38.11,3.58.17.85.04,1.69.08,2.53.13.32.01.64.03.95.05.11,0,.22.01.32.02.54.03,1.08.06,1.61.1.22.01.44.02.65.04.41.02.81.04,1.21.07.25.02.49.03.74.05.67.04,1.35.09,2.03.14.28.02.55.04.83.05.16,0,.32.02.48.04.64.04,1.27.09,1.9.14.43.03.87.07,1.3.11.08.01.17.01.26.02.12,0,.23.02.35.03.95.08,1.91.16,2.87.25.96.08,1.92.17,2.88.27.29.02.58.05.88.08.4.04.8.08,1.21.13.81.08,1.63.17,2.44.26h0l.06,6.64,11.18,1.17h0l-.18,2.6-.11,1.53,4.71.43s.05,0,.08.02c.17.04.3.15.32.17l-.04-3.54.05-8.46h0c1.49.17,2.65-.32,3.91-.62l-4.81-5.06Z"/>
      <path d="M161.39,224.06c-1.06.45-2.13.88-3.21,1.28h0c-24.02,3.29-42,.02-53.06-3.06-9.47-2.63-17.59-6.2-33.82-13.39-10.88-4.81-21.3-10.07-31.6-16.05-5-2.9-9.63-5.87-14.34-9.35l7.27-6.52,1.19-4.78h3.8s-4.75-22.97-4.75-22.97h0c1.68.91,3.37,1.79,5.05,2.65h0c.35.19.69.36,1.04.54,41.38,21.07,83.57,31,105.07,34.1l17.36,37.55Z"/>
      <path class="st1" d="M198.7,85.7l-.12,6.74-4.97-.54.08,4.73-11.11-1.25v5.86c-22.37-.79-44.48-.87-66.93-.39l.05-7.37-15.8.56.1-4.34-8.02.17-.03-7.25,8-.32v-4.85s15.61-.98,15.61-.98l-.14-6.49c9.6-.36,18.85.14,28.45.49,13.02.48,25.7,1.05,38.76,2.53l.06,6.64,11.19,1.17-.28,4.13,4.71.43c.2.02.38.32.4.33Z"/>
      <path d="M187.84,193.84l-2.11,7.91c1.07,2.01,2.15,4.01,3.23,6.02-4.49,3.57-9.26,6.82-14.26,9.71h0l10.18-35.29h0c3.32-1.33,6.01-3.08,8.26-5.23,1-.95,1.91-2,2.75-3.12.64-.84,1.22-1.73,1.78-2.66l-4.21,12.05c-1.69,3.7-3.49,7.19-5.63,10.61Z"/>
      <path class="st0" d="M181.72,122.1l-1.06-15.6c-5.08-.53-9.94-1.82-15.22-1.82l-32.69.05c-11.99.01-23.64.44-35.47,1.41-3,.25-1.99,2.15-4.18,3.61l.04,3.11,16.4,8.91.5,26.35,12.4,9.07,9.22,6.74,3.37,2.67,24.49.1,6.79.08,5.65-4.85.07-4.23,5.51-14.45c.32-.84.7-1.93.68-2.91l-.27-11.36,3.75-6.88ZM166.94,145.49c-.2.19-.38.38-.57.58-.13.13-.25.26-.36.4-.47.53-.89,1.07-1.23,1.66-.05.08-.1.16-.14.25-.1.16-.18.34-.26.51-.1.23-.19.46-.28.71h0c-.04.13-.07.26-.11.38h0l-19.97-.25,4.61-5.36,18.91.53c-.21.2-.41.39-.61.59ZM170.78,140.82h0c-.71-.2-1.4-.38-2.1-.54-.26-.06-.52-.12-.77-.17l-.27-.05c-.26-.05-.52-.11-.79-.16-.17-.04-.34-.07-.51-.1-.22-.04-.44-.08-.65-.11-.41-.07-.82-.13-1.23-.19-.26-.04-.52-.08-.79-.11-.1-.01-.2-.02-.31-.04-.09-.01-.18-.02-.28-.04-.28-.04-.56-.07-.85-.1h0c-.65-.07-1.3-.13-1.95-.19-.53-.05-1.07-.09-1.6-.13-.11-.01-.23-.02-.35-.02-.1,0-.2-.02-.3-.02-.11,0-.23-.02-.35-.02-.22-.02-.43-.03-.64-.04-.47-.04-.94-.06-1.41-.08-.21-.01-.42-.02-.63-.04-.19,0-.37-.02-.56-.02-.32-.02-.65-.03-.97-.04-.86-.04-1.71-.06-2.57-.08h-.35s-.55-.02-.55-.02c-2.08-.04-4.18-.04-6.29,0h-.21c-.72,0-1.45.02-2.17.04-.38,0-.77.01-1.16.03-.8.02-1.61.04-2.42.07-.27,0-.53.02-.8.02-.34.01-.69.02-1.04.04-.39.01-.78.03-1.18.04,5.36-3.25,11.08-5.35,17.21-6.18.11-.02.23-.02.35-.03.23-.02.45-.01.68,0,.13.01.26.03.4.05.14.02.28.04.42.07.28.05.55.13.81.2.4.12.8.26,1.18.39.25.09.5.18.73.27h0c.12.04.24.08.35.13.11.04.22.08.32.11.1.03.19.06.28.08.36.1.68.16.97.14l5.92-.22h0c.18.08.35.18.52.28.47.26.92.56,1.34.88.08.06.16.12.23.18.26.21.51.44.76.67.14.13.28.26.41.41.13.14.26.29.4.44.13.14.26.3.38.46.25.31.49.64.73.98.47.68.91,1.4,1.33,2.17.11.19.21.38.31.58h0ZM169.3,121.64l-9.14,5.76h0s-16.27-7.57-16.27-7.57l10.72-3.5,7.49,1.76c.35.08.82.52,1.25.4,0,0,.02,0,.02-.01.02,0,.04-.02.06-.02.01,0,.02,0,.03-.01.03-.01.06-.03.09-.05.27-.2.59-.43.95-.67.12-.08.24-.16.37-.23.38-.24.79-.49,1.2-.74.32-.19.65-.38.97-.56.09-.05.18-.11.28-.16.17-.1.35-.2.52-.3.18-.1.35-.2.52-.29h0c.06-.04.12-.07.18-.1.34-.19.64-.35.88-.49.12-.07.23-.12.32-.17.1-.05.19-.1.26-.13.02-.01.04-.02.05-.03.04-.02.07-.03.09-.04.05-.02.08-.04.09-.04.02,0,.06.03.11.08.01,0,.02.02.02.02.01.01.02.02.03.04.02.02.04.04.07.07.02.02.04.05.07.08.02.03.04.06.07.1.02.02.04.04.05.07.15.22.33.49.52.81.04.06.08.13.11.19.19.32.39.67.58,1.03.12.23.24.46.35.68.09.17.17.34.24.52.03.05.05.11.08.16.03.08.07.15.1.23.11.25.2.5.27.73l-3.59,2.39Z"/>
      <path d="M160.15,127.4l-16.28-7.57,10.74-3.5,7.49,1.76c.41.1.97.67,1.46.3,1.92-1.44,6.59-3.96,6.68-3.95.26.03,2.08,2.99,2.66,4.81l-3.59,2.4-9.14,5.76Z"/>
      <path d="M164.37,133.77c2.86,1.39,4.74,3.89,6.41,7.05-2.83-.79-5.5-1.28-8.54-1.6-9.13-.95-18.04-.83-27.51-.48,5.37-3.25,11.09-5.35,17.21-6.18,2.41-.33,5.02,1.48,6.5,1.42l5.93-.22Z"/>
      <path d="M164,149.97l-19.97-.24,4.61-5.36,18.92.53c-1.66,1.57-3.01,3.02-3.55,5.07Z"/>
      <path class="st0" d="M84.49,108.41c-.5,6.98-2.72,13.63-6.45,19.6,2.71-8.15,3.68-16.28,2.53-24.74-.7-5.19-1.9-9.93-4.2-14.56-2.24-4.53-5.12-8.72-9.46-11.57-.94-.62-1.93-1.13-2.95-1.52C43.62,65.22,21.12,53.82.79,43.43l-.14-1.52,65.69,28.3.46.17c1.17.47,2.3,1.07,3.4,1.79,4.71,3.13,7.96,7.54,10.33,12.65,3.43,7.38,4.53,15.35,3.95,23.57Z"/>
      <path class="st0" d="M124.53,55.35c-9.31-15.59-24.49-26.81-42.97-25.94-3.55.17-7.01,1.18-7.01,1.18-6.31,1.63-10.98,4.54-14.06,6.58-.26.17-.43.24-.28.07,17.6-15.48,40.06-15.5,57.39.1,5.58,5.11,9.9,11,13.56,17.76l-6.63.26Z"/>
    </g>
    <path class="st0" d="M168.05,221.02c-2.18,1.08-4.4,2.09-6.67,3.04l-17.36-37.55h0c-21.5-3.1-63.7-13.03-105.07-34.1-.35-.18-.69-.36-1.04-.54-1.69-.86-3.37-1.75-5.05-2.65l4.28-5.64.42.22c.29.16.59.31.88.46.55.29,1.1.58,1.64.86,1.1.57,2.18,1.13,3.27,1.67.54.28,1.08.55,1.62.82.54.28,1.07.54,1.61.8.53.27,1.07.53,1.6.79.53.26,1.07.53,1.6.78,1.35.65,2.69,1.29,4.03,1.91.8.37,1.59.74,2.38,1.1,2.22,1.02,4.42,2,6.58,2.95.63.28,1.26.55,1.89.82.2.09.41.18.62.26.62.27,1.24.53,1.85.79,1.86.79,3.7,1.54,5.51,2.26.49.2.97.39,1.45.58,1.45.58,2.87,1.13,4.29,1.67.74.28,1.49.56,2.22.83.14.05.28.11.43.16.86.32,1.71.64,2.55.94.98.36,1.95.7,2.92,1.04.86.31,1.72.6,2.57.89.9.31,1.79.61,2.68.91.88.3,1.76.59,2.64.87.88.29,1.74.56,2.6.83.74.23,1.48.47,2.22.7.58.18,1.16.35,1.74.53.56.17,1.12.34,1.68.5,3.01.9,5.93,1.72,8.74,2.47.59.16,1.18.32,1.76.47.58.16,1.16.31,1.74.46,1.15.3,2.28.59,3.4.86.22.05.43.1.64.16.56.14,1.11.27,1.66.4,1.42.35,2.81.67,4.17.98,5.14.99,21.07,4.36,25.13,4.61l18.19,40.09Z"/>
    <path class="st0" d="M197.68,171.16s0,0,0,.01c-.56.93-1.15,1.82-1.78,2.66-.84,1.12-1.75,2.17-2.75,3.12-2.25,2.15-4.94,3.9-8.26,5.23h0s-10.18,35.29-10.18,35.29h0c-1.69.98-3.41,1.91-5.15,2.8l9.06-42.23c9.82-2.24,14.88-6.79,17.63-10.41l1.44,3.53Z"/>
    <path class="st0" d="M49.98,96.7c-1.09-.62-8.32-7.18-16.96-15.14-12.17-11.22-27.14-25.25-31.64-29.48l-.1-1.47,1.54,1.36,30.77,27.04,18.31,16.09s1,3.3-1.92,1.61Z"/>
    <path class="st0" d="M3.17,52.27s-.39-.28-.83-1.66c-.44-1.38-.71-7.43-.71-7.43l-.89-.28.57,8.25,1.44,1.59.41-.47Z"/>
    <polygon class="st0" points="32.86 149.22 37.61 172.19 33.81 172.19 32.62 176.97 25.35 183.49 37.35 179.3 37.61 175.51 42.65 174.19 37.35 149.22 32.86 149.22"/>
    <path class="st0" d="M43.51,141.24l-5.07,3.03-.31.19-1-.87c.14-.07.28-.13.42-.19,1.95-.85,3.83-1.52,5.95-2.15Z"/>
    <path class="st0" d="M47.6,142.17l-4.09-.94c-4.58-7.3-7.96-15.05-9.88-23.45-.91-3.99-1.55-7.99-1.91-11.98C14.24,83.09,1.58,54.99,1.58,54.99l-.19-2.77,1.37.52v2.61s10.16,22.69,31.68,48.94c0,0-.25,16.97,11.24,36.28l1.92,1.61Z"/>
    <path class="st0" d="M65.61,34.09c-18.34,13.63-21.51,24.52-21.51,24.52l-1.99-.86c1.85-3.16,3.93-6.16,6.24-8.98,2.8-3.42,5.47-6,7.28-7.64.48-.43.91-.8,1.25-1.1.53-.45,1.03-.88,1.57-1.32.19-.22.39-.43.59-.64,2.75-2.3,4.7-3.75,4.7-3.75h.07s1.78-.23,1.78-.23Z"/>
    <path class="st0" d="M109.47,11.2c-6.96,1.87-26.14,7.71-35.32,17.33h0c-.58.61-1.12,1.24-1.62,1.88l-1.31.32-7.37,4.34-.74.44-.97.57-.11.1-3.8,3.5-.34-.47c.2-.17.39-.33.59-.49.19-.22.39-.43.59-.64,12.83-13.96,31.25-24.25,50.41-26.87Z"/>
    <polygon class="st0" points="194.62 121.53 189.96 130.7 189.85 140.04 187.02 150.32 187.02 129.93 192.01 120.91 194.58 110.73 194.62 121.53"/>
    <path class="st0" d="M186.37,60.22s.42-2.22-3.73-13.35c2.27,3.18,6.3,8.95,8.13,12.41h0s0,.01.02.03c.29.55.57,1.1.84,1.67.13.26.26.53.38.8l-5.64-1.56Z"/>
    <path class="st0" d="M202.61,72.94c-1.26.29-2.42.79-3.91.61h0s-8.31-.46-8.31-.46l6.28-3.42,1.12-1.78,4.81,5.06Z"/>
    <path class="st0" d="M171.66,34.97l-3.85-3.77c-.36-.35-.73-.7-1.09-1.04-10.34-9.73-23.14-16.4-37.22-18.75,0,0,24.64.07,42.17,23.57Z"/>
  </g>
</svg>