<?xml version="1.0" encoding="UTF-8"?>
<svg id="Layer_1" data-name="Layer 1" xmlns="http://www.w3.org/2000/svg" version="1.1" viewBox="0 0 24 24">
  <defs>
    <style>
      .cls-1 {
        fill: #4d4d4d;
        stroke-width: 0px;
      }
    </style>
  </defs>
  <path class="cls-1" d="M17.96,6.54v6.85c0,.27-.22.5-.5.5-.14,0-.26-.06-.35-.14s-3.07-3.07-3.07-3.07l-7.14,7.14c-.1.1-.23.15-.36.15s-.25-.05-.35-.15c-.2-.2-.2-.51,0-.71l7.14-7.14s-2.98-2.98-3.07-3.07-.15-.21-.15-.36c0-.28.23-.5.5-.5h6.85c.28,0,.5.22.5.5Z"/>
</svg>