<?xml version="1.0" encoding="UTF-8"?>
<svg id="Layer_1" data-name="Layer 1" xmlns="http://www.w3.org/2000/svg" version="1.1" viewBox="0 0 24 24">
  <defs>
    <style>
      .cls-1 {
        fill: #4d4d4d;
        stroke-width: 0px;
      }
    </style>
  </defs>
  <path class="cls-1" d="M16.96,16.26c.2.19.2.51,0,.71-.1.09-.22.14-.35.14s-.26-.05-.36-.14l-4.25-4.26-4.26,4.26c-.1.09-.23.14-.35.14-.13,0-.26-.05-.36-.14-.19-.2-.19-.52,0-.71l4.26-4.26-4.26-4.26c-.19-.19-.19-.51,0-.7.2-.2.51-.2.71,0l4.26,4.26,4.25-4.26c.2-.2.52-.2.71,0,.2.19.2.51,0,.7l-4.26,4.26,4.26,4.26Z"/>
</svg>