<?xml version="1.0" encoding="UTF-8"?>
<svg id="Layer_1" data-name="Layer 1" xmlns="http://www.w3.org/2000/svg" version="1.1" viewBox="0 0 24 24">
  <defs>
    <style>
      .cls-1 {
        fill: #4d4d4d;
        stroke-width: 0px;
      }
    </style>
  </defs>
  <path class="cls-1" d="M17.44,8.56h-2v-2c0-1.05-.86-1.91-1.91-1.91h-6.97c-1.05,0-1.91.86-1.91,1.91v6.97c0,1.05.86,1.91,1.91,1.91h2v2c0,1.05.86,1.91,1.91,1.91h6.97c1.06,0,1.91-.86,1.91-1.91v-6.97c0-1.05-.85-1.91-1.91-1.91ZM6.56,14.44c-.5,0-.91-.41-.91-.91v-6.97c0-.5.41-.91.91-.91h6.97c.5,0,.91.41.91.91v2h-3.97c-1.05,0-1.91.86-1.91,1.91v3.97h-2ZM18.35,17.44c0,.5-.41.91-.91.91h-6.97c-.5,0-.91-.41-.91-.91v-6.97c0-.5.41-.91.91-.91h6.97c.5,0,.91.41.91.91v6.97Z"/>
</svg>