<?xml version="1.0" encoding="UTF-8"?>
<svg id="Layer_1" data-name="Layer 1" xmlns="http://www.w3.org/2000/svg" version="1.1" viewBox="0 0 24 24">
  <defs>
    <style>
      .cls-1 {
        fill: #4d4d4d;
        stroke-width: 0px;
      }
    </style>
  </defs>
  <path class="cls-1" d="M8.69,12.88l-.06.06,2.7,2.57.06-.07-2.7-2.56Z"/>
  <g>
    <path class="cls-1" d="M19.13,18.8c0,.28-.22.5-.5.5l-8.62.03c-.28,0-.5-.22-.5-.49-.01-.28.22-.5.49-.51l8.63-.03c.28,0,.5.23.5.5Z"/>
    <path class="cls-1" d="M12.3,16.43c.1.09.22.14.35.14s.26-.05.36-.16l6.09-6.41c.35-.37.54-.85.52-1.36-.01-.5-.22-.97-.58-1.32l-2.25-2.13c-.76-.72-1.96-.69-2.68.07l-6.09,6.41c-.09.1-.14.23-.14.36,0,.07.02.14.05.2l-.57.6c-.1.1-.15.23-.14.37l.08,1.92-.78.78c-.09.09-.15.22-.14.36,0,.08.02.15.06.22l-1.92,2.01c-.14.15-.18.36-.1.55.08.18.26.29.46.29h.01l2.63-.03c.14,0,.27-.06.37-.17l.68-.77c.12,0,.25-.05.34-.15l1-.96,1.34-.32c.09-.02.18-.07.24-.14l.56-.59.25.23ZM7.28,18.31h-1.22s1.01-1.05,1.01-1.05l.62.59-.41.46ZM11.33,15.51l-.46.48-1.32.32c-.09.02-.17.06-.23.12l-.76.73-.97-.92.57-.57c.1-.1.15-.23.15-.37l-.08-1.93.4-.43.06-.06,2.7,2.56-.06.07ZM9.09,12l.06-.06,5.69-5.99c.16-.18.39-.28.62-.28.25,0,.47.08.64.24l2.25,2.13c.17.17.27.39.27.63.01.24-.08.46-.24.64l-5.75,6.05-.04-.03h0s-3.5-3.33-3.5-3.33Z"/>
  </g>
  <path class="cls-1" d="M12.44,15.06l-3.29-3.12-.06.06,3.5,3.32c-.03-.1-.08-.19-.15-.26Z"/>
</svg>