<?xml version="1.0" encoding="UTF-8"?>
<svg id="Layer_1" data-name="Layer 1" xmlns="http://www.w3.org/2000/svg" version="1.1" viewBox="0 0 16 16">
  <defs>
    <style>
      .cls-1 {
        fill: #4d4d4d;
        stroke-width: 0px;
      }
    </style>
  </defs>
  <path class="cls-1" d="M12.25,4.09v4.59c0,.18-.15.34-.33.34-.1,0-.18-.04-.24-.1-.05-.05-1.53-1.53-1.95-1.95l-5.13,5.13c-.09.1-.22.15-.35.15s-.26-.05-.35-.15c-.2-.19-.2-.51,0-.7l5.13-5.13c-.42-.42-1.9-1.9-1.95-1.95-.06-.06-.1-.14-.1-.23,0-.19.16-.34.34-.34h4.6c.18,0,.33.15.33.34Z"/>
</svg>