<?xml version="1.0" encoding="UTF-8"?>
<svg id="Layer_1" data-name="Layer 1" xmlns="http://www.w3.org/2000/svg" version="1.1" viewBox="0 0 24 24">
  <defs>
    <style>
      .cls-1 {
        fill: #4d4d4d;
        stroke-width: 0px;
      }
    </style>
  </defs>
  <path class="cls-1" d="M17.85,3.95H6.13c-1.21,0-2.18.99-2.18,2.2v11.71c0,1.21.98,2.2,2.18,2.2h11.72c1.21,0,2.2-.99,2.2-2.2V6.15c0-1.21-.99-2.2-2.2-2.2ZM18.9,17.85c0,.58-.47,1.05-1.05,1.05H6.13c-.58,0-1.03-.47-1.03-1.05V6.15c0-.58.46-1.05,1.03-1.05h11.72c.58,0,1.05.47,1.05,1.05v11.71Z"/>
  <g>
    <g>
      <path class="cls-1" d="M9.8,15.13c0,.49-.4.91-.91.91s-.91-.41-.91-.91.4-.92.91-.92.91.41.91.92Z"/>
      <path class="cls-1" d="M12.91,15.13c0,.49-.41.91-.92.91s-.91-.41-.91-.91.41-.92.91-.92.92.41.92.92Z"/>
      <path class="cls-1" d="M16,15.13c0,.49-.4.91-.91.91s-.91-.41-.91-.91.4-.92.91-.92.91.41.91.92Z"/>
    </g>
    <g>
      <polygon class="cls-1" points="9.38 11.59 9.38 12.2 7.03 12.2 7.03 11.59 7.89 11.59 7.89 8.71 6.86 9.37 6.86 8.66 7.89 8 8.61 8 8.61 11.59 9.38 11.59"/>
      <path class="cls-1" d="M13.16,11.59v.61h-2.33v-.61c0-.25.08-.52.31-.77l1.08-1.17c.13-.14.18-.26.18-.49v-.18c0-.3-.07-.4-.39-.4h-.06c-.32,0-.4.1-.4.4v.43h-.7v-.57c0-.54.31-.86.98-.86h.31c.66,0,.98.32.98.86v.4c0,.33-.1.56-.37.85l-1.06,1.15c-.11.13-.15.22-.16.37h1.63Z"/>
      <path class="cls-1" d="M17.07,10.66v.7c0,.55-.32.87-.98.87h-.39c-.66,0-.98-.32-.98-.87v-.58h.71v.43c0,.3.07.4.39.4h.14c.32,0,.39-.1.39-.4v-.43c0-.3-.07-.4-.39-.4h-.31v-.59l.61-1.18h-.83v.78h-.71v-1.39h2.28v.61l-.62,1.21c.46.09.69.39.69.84Z"/>
    </g>
  </g>
</svg>