<?xml version="1.0" encoding="UTF-8"?>
<svg id="Layer_1" data-name="Layer 1" xmlns="http://www.w3.org/2000/svg" version="1.1" viewBox="0 0 24 24">
  <defs>
    <style>
      .cls-1 {
        fill: #4d4d4d;
        stroke-width: 0px;
      }
    </style>
  </defs>
  <path class="cls-1" d="M18.54,8.96l-.3-.3.04-.04c.39-.39.6-.91.6-1.46s-.21-1.06-.6-1.45c-.8-.8-2.11-.81-2.91,0L6.77,14.31l-.27.27s-.09.11-.12.18l-1.25,3.46c-.07.19-.03.39.11.53.1.09.22.14.35.14.06,0,.12-.01.18-.03l3.46-1.25c.07-.03.13-.07.18-.12l.27-.27,7.82-7.82s.02-.02.03-.04l.31.31c.08.08.08.22,0,.3l-3.41,3.41c-.19.2-.19.51,0,.71.1.09.23.14.35.14.13,0,.26-.05.36-.14l3.4-3.41c.48-.47.48-1.24,0-1.72ZM16.08,6.41c.41-.41,1.08-.41,1.49,0,.2.2.31.47.31.75s-.11.55-.31.75l-.39.4-.03.03-1.5-1.5.43-.43ZM6.43,17.56l.77-2.11,1.35,1.35-2.12.76ZM9.33,16.16l-1.5-1.5,7.12-7.11,1.49,1.49-7.11,7.12Z"/>
  <path class="cls-1" d="M17.54,9.37l-.04.03s.02-.02.03-.04h.01Z"/>
</svg>