<?xml version="1.0" encoding="UTF-8"?>
<svg id="Layer_1" data-name="Layer 1" xmlns="http://www.w3.org/2000/svg" version="1.1" viewBox="0 0 16 16">
  <defs>
    <style>
      .cls-1 {
        fill: #4d4d4d;
        stroke-width: 0px;
      }
    </style>
  </defs>
  <path class="cls-1" d="M6.47,9.81h1.05v-3.49l-1.26.8v-.86l1.26-.8h.86v4.35h.94v.74h-2.85v-.74Z"/>
  <path class="cls-1" d="M10.5,12.96l.04.04h.96c.11,0,.22-.01.33-.04h-1.33Z"/>
  <path class="cls-1" d="M13,4.5v7c0,.18-.03.34-.09.5-.17.48-.58.85-1.08.96h-1.33l.04.04.22.22c.18.19.18.47,0,.65-.08.09-.2.13-.32.13s-.23-.04-.32-.12l-.87-.88-.18-.18c-.09-.08-.14-.19-.14-.32s.05-.24.14-.33l.17-.17.87-.87c.18-.18.47-.19.65,0,.09.08.14.19.14.31,0,.13-.05.25-.14.34l-.22.22h.96c.26,0,.48-.21.5-.46v-7.04c0-.28-.23-.5-.5-.5h-7c-.28,0-.5.22-.5.5v7c0,.27.22.5.5.5h4.08c-.1.15-.15.32-.15.5,0,.19.05.36.14.5h-4.07c-.83,0-1.5-.67-1.5-1.5v-7c0-.83.67-1.5,1.5-1.5h7c.82,0,1.5.67,1.5,1.5Z"/>
  <path class="cls-1" d="M11.83,12.96c-.11.03-.22.04-.33.04h-.96l-.04-.04h1.33Z"/>
</svg>
