<?xml version="1.0" encoding="UTF-8"?>
<svg id="Layer_1" data-name="Layer 1" xmlns="http://www.w3.org/2000/svg" version="1.1" viewBox="0 0 24 24">
  <defs>
    <style>
      .cls-1 {
        fill: #4d4d4d;
        stroke-width: 0px;
      }
    </style>
  </defs>
  <path class="cls-1" d="M18.51,7.16l-.99-1.28c-.44-.56-1.1-.88-1.81-.88H6.91c-1.06,0-1.91.86-1.91,1.91v10.18c0,1.06.85,1.91,1.91,1.91h10.18c1.05,0,1.91-.85,1.91-1.91v-8.52c0-.51-.17-1.01-.49-1.41ZM9.42,6h5.17v3.86h-5.17v-3.86ZM18,17.09c0,.5-.41.91-.91.91H6.91c-.5,0-.91-.41-.91-.91V6.91c0-.5.41-.91.91-.91h1.51v4.36c0,.27.22.5.5.5h6.17c.28,0,.5-.23.5-.5v-4.36h.12c.4,0,.77.18,1.02.5l1,1.28c.17.22.27.5.27.79v8.52Z"/>
  <path class="cls-1" d="M15.58,14.87c0,.28-.22.5-.5.5h-6.17c-.27,0-.5-.22-.5-.5s.23-.5.5-.5h6.17c.28,0,.5.23.5.5Z"/>
</svg>