<?xml version="1.0" encoding="UTF-8"?>
<svg id="Layer_1" data-name="Layer 1" xmlns="http://www.w3.org/2000/svg" version="1.1" viewBox="0 0 16 16">
  <defs>
    <style>
      .cls-1 {
        fill: #fff;
      }

      .cls-1, .cls-2 {
        stroke-width: 0px;
      }

      .cls-2 {
        fill: #4d4d4d;
      }
    </style>
  </defs>
  <rect class="cls-2" x="3.5" y="1.87" width="9" height="12" rx="2" ry="2" transform="translate(15.87 -.13) rotate(90)"/>
  <rect class="cls-2" x="3.04" y="4.14" width="9.96" height="7.47" rx="1" ry="1"/>
  <g>
    <path class="cls-1" d="M5.43,5.07h1.1l1.5,5.6h-1.02l-.26-1.06h-1.56l-.26,1.06h-1l1.5-5.6ZM6.57,8.78l-.42-1.69-.18-.74-.18.74-.42,1.69h1.21Z"/>
    <path class="cls-1" d="M8.42,9.64v-.35c0-.66.38-1.08,1.22-1.08h.9v-.42c0-.34-.1-.47-.49-.47h-.14c-.38,0-.49.14-.49.48v.06h-.91v-.22c0-.68.39-1.1,1.23-1.1h.5c.84,0,1.23.42,1.23,1.1v1.82c0,.32.1.42.43.42v.82c-.55,0-.99-.12-1.17-.5l-.33.22c-.37.24-.61.34-.93.34-.68,0-1.06-.42-1.06-1.1ZM10.33,9.72l.21-.14v-.66h-.72c-.38,0-.49.14-.49.48v.16c0,.29.14.42.37.42.18,0,.35-.07.63-.26Z"/>
  </g>
</svg>