<?xml version="1.0" encoding="UTF-8"?>
<svg id="Layer_1" data-name="Layer 1" xmlns="http://www.w3.org/2000/svg" version="1.1" viewBox="0 0 24 24">
  <defs>
    <style>
      .cls-1 {
        fill: #4d4d4d;
        stroke-width: 0px;
      }
    </style>
  </defs>
  <path class="cls-1" d="M17.6,5.17h-4.8c-.29,0-.57.12-.78.33l-6.4,6.54c-.41.42-.41,1.11,0,1.53l4.81,4.93c.2.21.48.33.78.33s.58-.12.78-.33l6.39-6.53c.2-.21.31-.48.31-.77v-4.93c0-.61-.49-1.1-1.09-1.1ZM17.66,11.27l-6.38,6.53h-.14l-4.8-4.93s-.04-.1,0-.13l6.46-6.57h4.8s.09.04.09.1l-.03,5Z"/>
  <path class="cls-1" d="M16.79,7.76c0,.44-.36.8-.8.8s-.79-.36-.79-.8.35-.79.79-.79.8.35.8.79Z"/>
</svg>