<?xml version="1.0" encoding="UTF-8"?>
<svg id="Layer_1" data-name="Layer 1" xmlns="http://www.w3.org/2000/svg" version="1.1" viewBox="0 0 24 24">
  <defs>
    <style>
      .cls-1 {
        fill: #4d4d4d;
        stroke-width: 0px;
      }
    </style>
  </defs>
  <path class="cls-1" d="M18.5,5H5.5c-.27,0-.5.23-.5.5v13c0,.28.23.5.5.5h13c.28,0,.5-.22.5-.5V5.5c0-.27-.22-.5-.5-.5ZM18,18H6V6h12v12Z"/>
  <g>
    <path class="cls-1" d="M10.18,8.73h-1.13l-1.55,5.77h1.03l.27-1.09h1.61l.27,1.09h1.05l-1.55-5.77ZM8.98,12.55l.44-1.74.19-.76.19.76.43,1.74h-1.25Z"/>
    <path class="cls-1" d="M15.84,13.25v-1.88c0-.7-.4-1.13-1.26-1.13h-.51c-.87,0-1.27.43-1.27,1.13v.23h.94v-.05c0-.36.1-.5.5-.5h.15c.39,0,.5.14.5.49v.43h-.93c-.86,0-1.25.43-1.25,1.11v.36c0,.71.38,1.14,1.08,1.14.33,0,.58-.1.96-.35l.34-.22c.18.4.63.52,1.2.52v-.84c-.34,0-.45-.11-.45-.44ZM14.89,13.38l-.22.14c-.28.19-.46.26-.65.26-.24,0-.38-.13-.38-.43v-.16c0-.36.11-.5.51-.5h.74v.69Z"/>
  </g>
</svg>