<?xml version="1.0" encoding="UTF-8"?>
<svg id="Layer_1" data-name="Layer 1" xmlns="http://www.w3.org/2000/svg" version="1.1" viewBox="0 0 24 24">
  <defs>
    <style>
      .cls-1 {
        fill: #4d4d4d;
        stroke-width: 0px;
      }
    </style>
  </defs>
  <path class="cls-1" d="M18.11,13.52c0,2.73-2.22,4.95-4.95,4.95h-1.58c-.28,0-.5-.22-.5-.5s.22-.5.5-.5h1.58c2.18,0,3.95-1.77,3.95-3.95s-1.77-3.95-3.95-3.95h-5.56l2.19,2.19c.2.2.2.52,0,.71-.1.1-.22.15-.35.15s-.26-.05-.36-.15l-3.04-3.05c-.1-.09-.15-.22-.15-.35s.05-.26.15-.35l3.04-3.05c.2-.19.52-.19.71,0,.2.2.2.51,0,.71l-2.19,2.19h5.56c2.73,0,4.95,2.22,4.95,4.95Z"/>
</svg>