<?xml version="1.0" encoding="UTF-8"?>
<svg id="Layer_1" data-name="Layer 1" xmlns="http://www.w3.org/2000/svg" version="1.1" viewBox="0 0 24 24">
  <defs>
    <style>
      .cls-1 {
        fill: #4d4d4d;
        stroke-width: 0px;
      }
    </style>
  </defs>
  <polygon class="cls-1" points="14.26 10.64 13.68 16.42 12.61 16.42 12.15 14.1 12 13.24 11.85 14.1 11.38 16.42 10.32 16.42 9.74 10.64 10.62 10.64 10.87 13.42 10.96 15.23 11.13 14.1 11.55 12.05 12.49 12.05 12.89 14.1 13.07 15.31 13.19 13.42 13.43 10.64 14.26 10.64"/>
  <path class="cls-1" d="M12,4.71c-1.16,0-5.34,6.76-5.34,9.22,0,2.95,2.4,5.35,5.34,5.35s5.35-2.4,5.35-5.35c0-2.46-4.19-9.22-5.35-9.22ZM12,18.29c-2.39,0-4.34-1.95-4.34-4.35,0-2.24,3.37-7.14,4.34-8.11.97.97,4.35,5.86,4.35,8.11,0,2.4-1.95,4.35-4.35,4.35Z"/>
</svg>